<svg xmlns="http://www.w3.org/2000/svg" xmlns:xlink="http://www.w3.org/1999/xlink" version="1.1" id="Layer_1" x="0px" y="0px" width="99.504px" height="100px" viewBox="0 0 99.504 100" enable-background="new 0 0 99.504 100" xml:space="preserve">
<path d="M92.247,100L7.326,99.948c-5.208,0-8.366-4.128-7.012-9.154l1.94-7.109c1.354-5.052,6.738-9.153,11.947-9.153h70.853  c5.215,0,10.631,4.102,12.057,9.114l2.051,7.253C100.581,95.911,97.462,100.013,92.247,100z"/>
<path d="M93.335,0H6.18C3.895,0,2.052,1.849,2.052,4.127v60.704c0,2.278,1.842,4.127,4.127,4.127h87.155  c2.285,0,4.127-1.849,4.127-4.127V4.127C97.462,1.849,95.62,0,93.335,0z M89.214,60.703H10.301V8.255h78.913V60.703z"/>
</svg>