<svg xmlns="http://www.w3.org/2000/svg" xmlns:xlink="http://www.w3.org/1999/xlink" version="1.1" id="Layer_1" x="0px" y="0px" width="100.0px" height="100px" viewBox="0 0 566.93 566.93" enable-background="new 0 0 566.93 566.93" xml:space="preserve">
<g>
	<path d="M475.333,165.763c-19.725-19.73-54.636-4.045-67.785,16.188c0,0,54.891-4.04,54.891,50.584   C485.705,209.264,499.861,190.303,475.333,165.763z"/>
	<path d="M433.951,199.876L274.509,353.437l17.458,12.079l4.18,18.214l-10.258,10.934l-16.692,5.562l-24.285-24.279l3.044-13.155   l169.2-169.194c-5.348-1.123-11.425-1.782-18.463-1.782L239.853,350.653l-16.418,60.508c-0.98-0.744-2.144-1.262-3.469-1.262   c-0.01,0-0.021,0-0.029,0c-101.314,0.347-131.092-21.085-132.733-33.911c-1.591-12.417,19.068-30.634,68.816-43.338   c26.601-6.792,38.243-14.374,37.751-24.587c-1.138-23.567-87.586-39.473-124.7-45.217c-3.218-0.483-6.17,1.692-6.665,4.876   c-0.492,3.189,1.69,6.17,4.876,6.664c59.593,9.223,114.322,25.542,114.826,34.229c-0.01,0.056-1.479,5.701-28.977,12.719   c-51.36,13.118-80.333,34.102-77.509,56.139c3.548,27.688,56.202,44.107,141.09,44.107c1.088,0,2.185-0.003,3.281-0.008   c0.231,0,0.429-0.107,0.651-0.137l-0.009,0.035l0.871-0.211c0.272-0.078,0.564-0.087,0.819-0.2l69.13-16.784l160.863-160.865   C452.321,243.411,458.005,214.38,433.951,199.876z"/>
</g>
</svg>