<svg xmlns="http://www.w3.org/2000/svg" xmlns:xlink="http://www.w3.org/1999/xlink" version="1.1" id="Layer_1" x="0px" y="0px" width="100px" height="100px" viewBox="0 0 100 100" enable-background="new 0 0 100 100" xml:space="preserve">
<polygon points="95.84,33.255 50,10.469 4.16,33.255 0,24.883 49.935,0.059 49.955,0 50,0.026 50.045,0 50.065,0.059 100,24.883 "/>
<path d="M50.43,45.228c-3.001-2.865-20.215-12.826-43.763-2.683c0,0.163,0,2.969,0,7.266V98.21H42.35  c1.218,1.041,4.128,1.79,7.533,1.79c3.418,0,6.321-0.749,7.552-1.79h35.898V49.811c0-4.297,0-7.103,0-7.266  C70.749,32.598,52.708,43.125,50.43,45.228z M47.227,94.739c0-1.907-16.745-13.06-36.094-0.892V46.66  c3.828-2.207,8.984-3.548,14.674-3.548c11.836,0,21.419,3.88,21.419,11.094V94.739z M89.134,93.848  c-19.336-12.168-36.08-1.016-36.08,0.892V54.206c0-7.214,9.59-11.094,21.412-11.094c5.69,0,10.847,1.341,14.668,3.548V93.848z"/>
</svg>