<svg xmlns="http://www.w3.org/2000/svg" xmlns:xlink="http://www.w3.org/1999/xlink" version="1.1" id="Layer_1" x="0px" y="0px" width="99.997px" height="93.15px" viewBox="0 0 99.997 93.15" enable-background="new 0 0 99.997 93.15" xml:space="preserve">
<rect x="-590.501" y="-43.925" fill="#000000" width="131" height="142"/>
<path fill="#000000" d="M21.64,49.028c4.15,0,7.509-3.359,7.509-7.509c0-4.125-3.358-7.484-7.509-7.484  c-4.126,0-7.485,3.359-7.485,7.484C14.157,45.67,17.516,49.028,21.64,49.028z"/>
<path fill="#000000" d="M37.136,24.042V47.28l-7.165,3.435l-2.748-0.005H16.281l-4.72,0.008c-1.46-0.126-2.875,0.961-3.383,2.407  l-8.18,23.233h7.468l4.095-11.632v11.632h20.265l-0.007-18.745c0.074-0.029,0.15-0.046,0.224-0.081l5.094-2.442v6.587h62.862V24.042  H37.136z M96.277,57.955H40.859v-4.648l17.367-8.323c1.637-0.786,2.326-2.75,1.539-4.386l-0.205-0.423  c-0.786-1.636-2.748-2.325-4.385-1.539l-14.316,6.861V27.763h55.418V57.955z"/>
</svg>